<svg width="22" height="20" viewBox="0 0 22 20" fill="none" xmlns="http://www.w3.org/2000/svg">
<path d="M6.49951 8.75H1.99951C1.8006 8.75 1.60983 8.82902 1.46918 8.96967C1.32853 9.11032 1.24951 9.30109 1.24951 9.5V17.75C1.24951 17.9489 1.32853 18.1397 1.46918 18.2803C1.60983 18.421 1.8006 18.5 1.99951 18.5H6.49951M6.49951 8.75V18.5M6.49951 8.75L10.2495 1.25C10.6435 1.25 11.0336 1.3276 11.3976 1.47836C11.7615 1.62913 12.0923 1.8501 12.3708 2.12868C12.6494 2.40726 12.8704 2.73797 13.0212 3.10195C13.1719 3.46593 13.2495 3.85603 13.2495 4.25V6.5H19.0503C19.263 6.5 19.4733 6.54523 19.6672 6.63269C19.861 6.72016 20.0341 6.84785 20.1749 7.0073C20.3156 7.16675 20.4209 7.35431 20.4836 7.55753C20.5463 7.76076 20.5651 7.975 20.5388 8.18605L19.4138 17.1861C19.3684 17.5488 19.1921 17.8826 18.918 18.1245C18.644 18.3665 18.2909 18.5 17.9253 18.5H6.49951" stroke="#F5F5F5" stroke-width="2" stroke-linecap="round" stroke-linejoin="round"></path>
</svg>
