<svg width="32" height="32" viewBox="0 0 32 32" fill="none" xmlns="http://www.w3.org/2000/svg">
<path d="M16 0C7.16444 0 0 7.16444 0 16C0 21.0667 2.36444 25.5822 6.04444 28.5156C6.32889 28.7467 6.61333 28.96 6.89778 29.1556C9.49333 30.9511 12.6222 32 16 32C19.4844 32 22.7022 30.8622 25.3333 28.9778C25.6356 28.7644 25.92 28.5511 26.2044 28.32C29.7422 25.3867 32 20.96 32 16C32 7.16444 24.8356 0 16 0Z" fill="#F8F8F8"></path>
<path d="M23.5491 9.78805C22.5138 8.75275 21.1765 8.23511 19.8393 8.23511C18.502 8.23511 17.1648 8.75275 16.1295 9.78805C16.0863 9.83119 16.0432 9.91746 16.0001 9.9606C15.9569 9.91746 15.9138 9.87432 15.8706 9.78805C14.8354 8.75275 13.4981 8.23511 12.1608 8.23511C10.8236 8.23511 9.48633 8.75275 8.45104 9.78805C6.42359 11.8586 6.42359 15.2665 8.45104 17.3371C10.4785 19.4077 15.8275 24.541 15.8275 24.541C15.8706 24.6273 15.9569 24.6273 16.0001 24.6273C16.0432 24.6273 16.1295 24.6273 16.1295 24.5841C16.1295 24.5841 21.4785 19.4508 23.5059 17.3802C25.5334 15.3096 25.5765 11.9018 23.5491 9.78805Z" fill="black"></path>
</svg>
