<svg width="32" height="32" fill="none" xmlns="http://www.w3.org/2000/svg"><path d="M16 0C7.164 0 0 7.164 0 16c0 5.067 2.364 9.582 6.044 12.516.285.23.57.444.854.64A15.93 15.93 0 0 0 16 32c3.484 0 6.702-1.138 9.333-3.022.303-.214.587-.427.871-.658C29.742 25.387 32 20.96 32 16c0-8.836-7.164-16-16-16Z" fill="#F8F8F8"/><path d="M23.55 9.788a5.23 5.23 0 0 0-3.71-1.553 5.23 5.23 0 0 0-3.71 1.553c-.044.043-.087.13-.13.173a.596.596 0 0 1-.13-.173 5.23 5.23 0 0 0-3.71-1.553 5.23 5.23 0 0 0-3.709 1.553c-2.027 2.07-2.027 5.479 0 7.55 2.027 2.07 7.377 7.203 7.377 7.203.043.086.129.086.172.086.043 0 .13 0 .13-.043 0 0 5.349-5.133 7.376-7.204 2.027-2.07 2.07-5.478.043-7.592Z" fill="#000"/></svg>