<svg width="24" height="24" viewBox="0 0 24 24" fill="none" xmlns="http://www.w3.org/2000/svg">
<path d="M12.6888 4.49291L19.5072 11.3114M7.81845 23.0001H1.97406C1.71573 23.0001 1.46797 22.8975 1.2853 22.7148C1.10262 22.5322 1 22.2844 1 22.0261V16.5851C1 16.4572 1.02519 16.3306 1.07415 16.2124C1.1231 16.0942 1.19485 15.9868 1.2853 15.8964L15.8963 1.28542C16.0789 1.10275 16.3267 1.00012 16.585 1.00012C16.8434 1.00012 17.0911 1.10275 17.2738 1.28542L22.7147 6.72633C22.8974 6.909 23 7.15676 23 7.4151C23 7.67344 22.8974 7.92119 22.7147 8.10387L7.81845 23.0001Z" stroke="white" stroke-width="2" stroke-linecap="round" stroke-linejoin="round"></path>
</svg>
