<svg width="154" height="25" fill="none" xmlns="http://www.w3.org/2000/svg"><g clip-path="url('#clip0_5_5039')" fill="#fff"><path d="M13.501 2.237C12.095 1.012 10.065.4 7.412.4H0v19.762h4.636v-6.02h3.3c1.205 0 2.284-.18 3.234-.545.951-.365 1.76-.858 2.423-1.478a6.455 6.455 0 0 0 1.493-2.17 6.615 6.615 0 0 0 .524-2.597c0-2.184-.702-3.889-2.109-5.114Zm-3.143 6.831c-.479.56-1.217.84-2.213.84h-3.51V4.66h3.563c.924 0 1.637.253 2.134.759.498.506.747 1.113.747 1.824 0 .658-.241 1.265-.72 1.824ZM21.765 0h-4.558v20.16h4.558V0ZM40.23 5.14h-.446c-.524 0-1.173.165-1.951.493a9.102 9.102 0 0 0-2.056 1.185 3.884 3.884 0 0 0-1.454-1.225c-.602-.301-1.349-.453-2.24-.453h-.287a8.5 8.5 0 0 0-1.794.386c-.55.187-1.113.485-1.69.893v-.906h-4.426v14.648h4.426v-9.508a6.141 6.141 0 0 1 1.035-.706c.322-.167.746-.26 1.27-.28.629-.018 1.121.227 1.48.733s.537 1.444.537 2.81v6.95h4.321v-8.948c0-.106-.005-.226-.013-.36a6.525 6.525 0 0 1-.013-.385c.296-.267.59-.461.878-.586.288-.125.66-.195 1.113-.213.61-.019 1.094.205 1.453.666.36.46.537 1.419.537 2.876v6.95h4.348v-9.347c0-1.777-.42-3.164-1.257-4.168-.838-1.004-2.095-1.505-3.772-1.505ZM60.318 7.164a7.544 7.544 0 0 0-2.502-1.518 8.595 8.595 0 0 0-3.025-.532 8.74 8.74 0 0 0-3.05.532c-.952.354-1.777.86-2.476 1.518a6.982 6.982 0 0 0-1.69 2.424c-.41.959-.615 2.032-.615 3.222s.191 2.23.576 3.17c.386.94.917 1.75 1.598 2.423a7.24 7.24 0 0 0 2.488 1.558c.962.365 2.017.546 3.17.546 1.152 0 2.181-.18 3.142-.546a7.241 7.241 0 0 0 2.489-1.558 7.36 7.36 0 0 0 1.61-2.423c.393-.94.59-1.998.59-3.17 0-1.171-.21-2.263-.63-3.222-.418-.959-.976-1.766-1.675-2.424Zm-3.248 8.27a3.501 3.501 0 0 1-2.331.865c-.872 0-1.61-.287-2.265-.865-.655-.578-.983-1.452-.983-2.624 0-1.171.328-1.979.983-2.583.654-.605 1.409-.906 2.265-.906.857 0 1.65.301 2.331.906.681.604 1.022 1.465 1.022 2.583 0 1.119-.341 2.046-1.022 2.624ZM74.435 6.552c-.385-.373-.865-.688-1.44-.946-.577-.258-1.24-.405-1.991-.44a7.413 7.413 0 0 0-2.593.347 5.59 5.59 0 0 0-2.174 1.305c-.629.604-1.134 1.38-1.52 2.33-.384.951-.594 2.083-.628 3.396-.052 1.206.123 2.245.524 3.116.4.87.925 1.58 1.572 2.13.646.568 1.37.986 2.173 1.252.804.267 1.598.4 2.384.4a6.47 6.47 0 0 0 2.147-.346c.681-.232 1.197-.533 1.546-.906v.64c0 .479-.176.94-.524 1.384-.349.445-.961.72-1.834.826-1.013.106-1.964.034-2.854-.213-.89-.248-1.781-.64-2.672-1.172l-1.886 3.622a10.91 10.91 0 0 0 2.92 1.265c.988.258 1.881.405 2.685.44 1.153.053 2.284 0 3.392-.16s2.074-.525 2.894-1.092c1.048-.746 1.72-1.604 2.017-2.57.296-.967.445-2.144.445-3.53V5.514h-4.583v1.039Zm-.825 8.11c-.498.558-1.218.838-2.161.838-.82.019-1.524-.232-2.108-.746-.584-.514-.852-1.323-.8-2.423.019-.605.119-1.113.302-1.531.183-.419.414-.76.694-1.026.28-.248.584-.426.917-.533.332-.106.662-.151.995-.133a3.182 3.182 0 0 1 2.043.906c.576.551.864 1.403.864 2.556 0 .834-.249 1.532-.746 2.091ZM87.229 5.753c-.48.178-.956.452-1.427.825V5.513h-4.663v14.648h4.663V10.76a5.021 5.021 0 0 1 1.519-.746 5.708 5.708 0 0 1 1.623-.24h.42V5.38h-.472a7.094 7.094 0 0 0-1.663.373ZM100.832 6.844c-.4-.426-.908-.79-1.519-1.091-.61-.301-1.29-.48-2.043-.533a6.876 6.876 0 0 0-2.58.386 5.846 5.846 0 0 0-2.186 1.372c-.647.62-1.166 1.416-1.559 2.383-.393.967-.607 2.099-.641 3.396-.034 1.313.117 2.445.458 3.396.34.95.817 1.736 1.427 2.357a5.965 5.965 0 0 0 2.2 1.384 7.92 7.92 0 0 0 2.698.453c.752 0 1.454-.128 2.108-.386a4.484 4.484 0 0 0 1.637-1.079v1.279h4.531V5.513h-4.531v1.331Zm-.131 6.699a4.783 4.783 0 0 0-.026.36c-.157.817-.51 1.416-1.06 1.797-.55.38-1.21.572-1.978.572a2.646 2.646 0 0 1-2.004-.878c-.534-.586-.798-1.465-.798-2.637s.306-2.072.916-2.65c.61-.578 1.276-.847 1.99-.812.839 0 1.546.338 2.122 1.012.577.673.865 1.632.865 2.876 0 .053-.008.173-.027.36ZM120.633 7.19a6.054 6.054 0 0 0-2.135-1.45 6.613 6.613 0 0 0-2.632-.467c-.872.035-1.647.195-2.318.48-.673.285-1.192.639-1.558 1.065V5.513h-4.505V23.49h4.505v-4.634c.419.48.961.852 1.624 1.118a5.63 5.63 0 0 0 2.121.4c.961 0 1.86-.141 2.698-.426a5.848 5.848 0 0 0 2.2-1.332c.61-.604 1.092-1.377 1.44-2.317.349-.94.516-2.059.498-3.356-.018-1.243-.196-2.349-.537-3.315-.34-.967-.807-1.78-1.401-2.437Zm-2.737 7.325c-.183.46-.432.825-.747 1.092a2.652 2.652 0 0 1-1.021.572c-.385.115-.77.155-1.152.12-.82-.053-1.499-.38-2.03-.985-.535-.605-.799-1.297-.799-2.078 0-1.171.283-2.112.851-2.823.569-.71 1.297-1.065 2.187-1.065.348 0 .702.067 1.061.2s.676.34.956.626c.28.285.511.644.694 1.078.183.434.275.954.275 1.558 0 .674-.092 1.244-.275 1.705ZM132.497 5.113h-.34a7.557 7.557 0 0 0-1.834.387c-.594.205-1.047.439-1.362.705V.4h-4.583v19.762h4.583v-9.508c.281-.301.598-.538.956-.706a3.95 3.95 0 0 1 1.218-.333c.663-.053 1.187.147 1.572.6.385.452.576 1.363.576 2.73v7.217h4.583v-8.949c0-1.758-.458-3.214-1.375-4.367-.916-1.154-2.247-1.732-3.994-1.732ZM148.919 5.513l-2.462 6.019-2.829-6.02h-5.185l5.631 11.267-2.777 6.072 4.558 1.305L154 5.513h-5.081Z"/></g><defs><clipPath id="clip0_5_5039"><path fill="#fff" d="M0 0h154v25H0z"/></clipPath></defs></svg>