<svg width="26" height="26" fill="none" xmlns="http://www.w3.org/2000/svg"><path d="M25.508 11.602c.964-.944.432-2.59-.902-2.785l-6.166-.9a1.626 1.626 0 0 1-1.225-.894L14.458 1.41c-.597-1.213-2.32-1.213-2.916 0L8.784 7.024a1.626 1.626 0 0 1-1.224.893l-6.167.9c-1.333.194-1.865 1.841-.9 2.785l4.461 4.37c.383.375.558.915.468 1.446l-1.053 6.17c-.228 1.334 1.166 2.35 2.359 1.721l5.515-2.913a1.62 1.62 0 0 1 1.513 0l5.516 2.913c1.193.63 2.587-.387 2.36-1.722l-1.054-6.17c-.09-.529.084-1.07.468-1.445l4.462-4.37Z" fill="#1BC895"/></svg>