<svg width="18" height="18" viewBox="0 0 18 18" fill="none" xmlns="http://www.w3.org/2000/svg">
<path d="M17.25 12L13.2803 8.03033C13.1397 7.88968 12.9489 7.81066 12.75 7.81066C12.5511 7.81066 12.3603 7.88968 12.2197 8.03033L8.03033 12.2197C7.88967 12.3603 7.69891 12.4393 7.5 12.4393C7.30108 12.4393 7.11032 12.3603 6.96967 12.2197L5.03033 10.2803C4.88967 10.1397 4.69891 10.0607 4.5 10.0607C4.30108 10.0607 4.11032 10.1397 3.96967 10.2803L0.75 13.5M1.5 0.75H16.5C16.9142 0.75 17.25 1.08579 17.25 1.5V16.5C17.25 16.9142 16.9142 17.25 16.5 17.25H1.5C1.08579 17.25 0.75 16.9142 0.75 16.5V1.5C0.75 1.08579 1.08579 0.75 1.5 0.75Z" stroke="#F4F5F6" stroke-width="1.5" stroke-linecap="round" stroke-linejoin="round"/>
</svg>
