<svg width="26" height="26" viewBox="0 0 26 26" fill="none" xmlns="http://www.w3.org/2000/svg">
<path d="M25.5075 11.6025C26.4723 10.6575 25.94 9.01138 24.6063 8.81697L18.4398 7.91659C17.91 7.83951 17.4526 7.50518 17.2155 7.02308L14.4577 1.4102C13.8615 0.196601 12.1383 0.196601 11.5421 1.4102L8.78428 7.02357C8.54774 7.50567 8.08982 7.83951 7.56005 7.91708L1.39348 8.81697C0.0602703 9.01138 -0.472426 10.658 0.492292 11.6025L4.95424 15.9719C5.33739 16.347 5.51235 16.8875 5.42194 17.4177L4.36876 23.5873C4.14102 24.9217 5.53483 25.9389 6.72778 25.309L12.2434 22.3963C12.7169 22.1464 13.2829 22.1464 13.7564 22.3963L19.272 25.309C20.465 25.9389 21.8588 24.9217 21.6311 23.5873L20.5779 17.4177C20.4875 16.888 20.6624 16.3475 21.0456 15.9719L25.508 11.6025H25.5075Z" fill="#1BC895"/>
</svg>
