<svg width="103" height="103" viewBox="0 0 103 103" fill="none" xmlns="http://www.w3.org/2000/svg">
<path d="M37.0392 70.7694C38.4633 74.8121 40.7662 78.4888 43.7821 81.5344C46.798 84.5801 50.4519 86.919 54.4805 88.3827C58.509 89.8464 62.8121 90.3984 67.0797 89.999C71.3473 89.5997 75.4732 88.2588 79.1602 86.0731L89.1654 88.9314C89.5794 89.0497 90.0174 89.0551 90.4342 88.9471C90.8509 88.8391 91.2312 88.6216 91.5356 88.3172C91.84 88.0128 92.0575 87.6325 92.1655 87.2158C92.2735 86.799 92.2681 86.361 92.1498 85.947L89.2912 75.9418C91.8311 71.6582 93.2244 66.7925 93.3362 61.8138C93.4481 56.835 92.2749 51.9115 89.9299 47.5182C87.5848 43.1249 84.1471 39.4101 79.9484 36.7323C75.7497 34.0544 70.9316 32.5039 65.9592 32.2302M13.7082 56.6294C10.1091 50.5621 8.84861 43.3896 10.1635 36.4586C11.4785 29.5277 15.2784 23.3152 20.8497 18.9877C26.4209 14.6602 33.3804 12.5154 40.4212 12.956C47.4619 13.3966 54.0997 16.3923 59.088 21.3806C64.0764 26.3689 67.0721 33.0066 67.5127 40.0474C67.9533 47.0882 65.8085 54.0477 61.4811 59.619C57.1536 65.1903 50.9411 68.9902 44.0102 70.3051C37.0793 71.6201 29.9067 70.3597 23.8394 66.7605L13.8342 69.6189C13.4202 69.7372 12.9822 69.7426 12.5655 69.6346C12.1487 69.5266 11.7684 69.3091 11.464 69.0047C11.1596 68.7003 10.9421 68.32 10.8341 67.9033C10.7261 67.4865 10.7315 67.0485 10.8498 66.6345L13.7082 56.6294Z" stroke="#4F5662" stroke-width="3" stroke-linecap="round" stroke-linejoin="round"/>
</svg>
