<svg width="154" height="25" viewBox="0 0 154 25" fill="none" xmlns="http://www.w3.org/2000/svg">
<g clip-path="url(#clip0_5_5039)">
<path d="M13.5014 2.23706C12.095 1.01196 10.0652 0.399414 7.41203 0.399414H0V20.1608H4.63579V14.1418H7.93585C9.14063 14.1418 10.2197 13.9607 11.1704 13.5959C12.1212 13.231 12.9305 12.7383 13.5931 12.1177C14.24 11.4972 14.7376 10.7728 15.086 9.94719C15.4343 9.12158 15.6098 8.25602 15.6098 7.35052C15.6098 5.16665 14.9079 3.46216 13.5014 2.23706ZM10.3585 9.06832C9.87922 9.6276 9.14063 9.90724 8.14538 9.90724H4.63579V4.66063H8.19776C9.1223 4.66063 9.83469 4.91364 10.3323 5.41965C10.8299 5.92567 11.0788 6.5329 11.0788 7.24399C11.0788 7.90181 10.8378 8.50903 10.3585 9.06832Z" fill="white"/>
<path d="M21.7646 0H17.2074V20.1609H21.7646V0Z" fill="white"/>
<path d="M40.2292 5.14014H39.784C39.2602 5.14014 38.6106 5.30526 37.8328 5.63284C37.0549 5.96042 36.3713 6.35725 35.7768 6.81799C35.4101 6.30398 34.9256 5.89384 34.3232 5.59289C33.7208 5.29194 32.9744 5.14014 32.0839 5.14014H31.7958C31.1489 5.21204 30.5517 5.33988 30.0017 5.52631C29.4517 5.71274 28.8886 6.01102 28.3124 6.4185V5.51299H23.8861V20.1609H28.3124V10.6531C28.679 10.3521 29.0248 10.1151 29.3469 9.94732C29.6691 9.77953 30.0934 9.68632 30.6172 9.66767C31.2458 9.64903 31.7381 9.89405 32.097 10.4001C32.4558 10.9061 32.6339 11.8436 32.6339 13.2098V20.1609H36.9554V11.2124C36.9554 11.1058 36.9501 10.986 36.9423 10.8528C36.9344 10.7197 36.9292 10.5918 36.9292 10.4667C37.2251 10.2003 37.5185 10.0059 37.8066 9.88073C38.0947 9.75556 38.4666 9.68632 38.9197 9.66767C39.5299 9.64903 40.0145 9.87275 40.3733 10.3335C40.7321 10.7942 40.9102 11.753 40.9102 13.2098V20.1609H45.2579V10.8129C45.2579 9.03648 44.8388 7.64893 44.0007 6.64488C43.1626 5.64083 41.9055 5.14014 40.2292 5.14014Z" fill="white"/>
<path d="M60.3177 7.16423C59.6027 6.50641 58.7672 6.00039 57.8165 5.64618C56.8657 5.29196 55.8574 5.11353 54.7914 5.11353C53.7254 5.11353 52.6909 5.29196 51.7402 5.64618C50.7894 6.00039 49.9644 6.50641 49.2651 7.16423C48.5501 7.82206 47.987 8.62903 47.5758 9.5878C47.1646 10.5466 46.9603 11.6199 46.9603 12.8103C46.9603 14.0008 47.1515 15.0395 47.5365 15.9796C47.9215 16.9197 48.4532 17.7294 49.1342 18.4032C49.8335 19.077 50.6611 19.5963 51.6223 19.9612C52.5835 20.3261 53.639 20.5072 54.7914 20.5072C55.9438 20.5072 56.9731 20.3261 57.9343 19.9612C58.8955 19.5963 59.7232 19.077 60.4225 18.4032C61.1034 17.7294 61.6403 16.9197 62.0332 15.9796C62.4261 15.0395 62.6225 13.9822 62.6225 12.8103C62.6225 11.6385 62.413 10.5466 61.9939 9.5878C61.5749 8.62903 61.017 7.82206 60.3177 7.16423ZM57.07 15.4336C56.3891 16.0116 55.6112 16.2992 54.739 16.2992C53.8669 16.2992 53.1283 16.0116 52.4735 15.4336C51.8187 14.8557 51.4914 13.9822 51.4914 12.8103C51.4914 11.6385 51.8187 10.8315 52.4735 10.227C53.1283 9.62242 53.8826 9.32147 54.739 9.32147C55.5955 9.32147 56.3891 9.62242 57.07 10.227C57.751 10.8315 58.0915 11.6918 58.0915 12.8103C58.0915 13.9289 57.751 14.8557 57.07 15.4336Z" fill="white"/>
<path d="M74.4347 6.55156C74.0496 6.17871 73.5704 5.86444 72.9942 5.60611C72.418 5.34777 71.7553 5.20129 71.0036 5.16667C70.0948 5.13205 69.2305 5.24657 68.4107 5.51289C67.591 5.77922 66.8655 6.21333 66.2369 6.81789C65.6083 7.42245 65.1028 8.19746 64.7178 9.14824C64.3328 10.099 64.1233 11.2309 64.0892 12.5439C64.0369 13.7503 64.2123 14.789 64.6131 15.6599C65.0138 16.5308 65.5376 17.2392 66.1845 17.7905C66.8314 18.3578 67.5543 18.7759 68.3584 19.0422C69.1624 19.3086 69.956 19.4417 70.7417 19.4417C71.5275 19.4417 72.2084 19.3272 72.8894 19.0955C73.5703 18.8638 74.0863 18.5629 74.4347 18.19V18.8292C74.4347 19.3086 74.2592 19.7693 73.9108 20.2141C73.5625 20.6588 72.9496 20.9332 72.0775 21.0397C71.0639 21.1462 70.1131 21.0743 69.2227 20.8266C68.3322 20.5789 67.4417 20.1874 66.5512 19.6548L64.6654 23.2768C65.6266 23.8627 66.5983 24.2835 67.5857 24.5419C68.5731 24.8002 69.4662 24.9467 70.2703 24.9813C71.4227 25.0346 72.5541 24.9813 73.662 24.8215C74.7699 24.6617 75.7363 24.2968 76.5561 23.7296C77.6037 22.9839 78.2769 22.1263 78.5728 21.1595C78.8688 20.1928 79.0181 19.0156 79.0181 17.6307V5.51289H74.4347V6.55156ZM73.6096 14.6612C73.112 15.2205 72.3918 15.5001 71.4489 15.5001C70.6291 15.5188 69.9246 15.2684 69.3405 14.7544C68.7565 14.2404 68.4893 13.4308 68.5417 12.3308C68.56 11.7263 68.6596 11.2176 68.8429 10.7995C69.0262 10.3813 69.2567 10.0404 69.5369 9.7741C69.8172 9.52642 70.121 9.34798 70.4536 9.24145C70.7863 9.13492 71.1163 9.08965 71.4489 9.10829C72.2346 9.16156 72.9156 9.4625 73.4918 10.0138C74.068 10.5651 74.3561 11.4173 74.3561 12.5705C74.3561 13.4041 74.1073 14.1019 73.6096 14.6612Z" fill="white"/>
<path d="M87.2289 5.75274C86.7496 5.93118 86.273 6.20549 85.8015 6.57835V5.51305H81.1395V20.161H85.8015V10.7597C86.273 10.4214 86.7784 10.1737 87.3206 10.014C87.8627 9.85415 88.4023 9.77426 88.9444 9.77426H89.3635V5.37988H88.892C88.2635 5.45179 87.7082 5.5743 87.2289 5.75274Z" fill="white"/>
<path d="M100.832 6.84447C100.432 6.41835 99.9235 6.05349 99.3133 5.75254C98.7031 5.45159 98.0221 5.27315 97.2704 5.21989C96.3799 5.18526 95.5209 5.3131 94.6906 5.60606C93.8604 5.89902 93.1322 6.3571 92.5037 6.97764C91.8567 7.59818 91.3382 8.39449 90.9453 9.36125C90.5524 10.328 90.3377 11.4599 90.3036 12.7569C90.2696 14.0699 90.4215 15.2018 90.762 16.1526C91.1024 17.1033 91.5791 17.889 92.1894 18.5095C92.8179 19.1301 93.5513 19.5935 94.3894 19.8944C95.2275 20.1954 96.1259 20.3472 97.0871 20.3472C97.8388 20.3472 98.5407 20.2194 99.1954 19.961C99.8502 19.7027 100.395 19.3431 100.832 18.8824V20.1608H105.363V5.51284H100.832V6.84447ZM100.701 13.5426C100.683 13.729 100.675 13.8488 100.675 13.9021C100.518 14.7197 100.165 15.319 99.6145 15.6998C99.0645 16.0806 98.4045 16.2724 97.6371 16.2724C96.8697 16.2724 96.1652 15.9794 95.6335 15.3935C95.0992 14.8076 94.8347 13.9287 94.8347 12.7569C94.8347 11.5851 95.1411 10.6849 95.7513 10.107C96.3616 9.52904 97.0268 9.26005 97.7418 9.29467C98.58 9.29467 99.2871 9.6329 99.8633 10.3067C100.44 10.9805 100.728 11.9393 100.728 13.183C100.728 13.2363 100.72 13.3561 100.701 13.5426Z" fill="white"/>
<path d="M120.633 7.19076C120.023 6.55158 119.31 6.06686 118.498 5.73928C117.686 5.4117 116.809 5.25457 115.866 5.27321C114.994 5.30783 114.219 5.46763 113.548 5.7526C112.875 6.03757 112.356 6.39178 111.99 6.8179V5.51291H107.485V23.4899H111.99V18.8558C112.409 19.3352 112.951 19.7081 113.614 19.9744C114.276 20.2407 114.983 20.3739 115.735 20.3739C116.696 20.3739 117.595 20.2327 118.433 19.9478C119.271 19.6628 120.004 19.2207 120.633 18.6161C121.243 18.0116 121.725 17.2392 122.073 16.2991C122.422 15.359 122.589 14.2404 122.571 12.9434C122.553 11.6997 122.375 10.5944 122.034 9.62764C121.694 8.66088 121.227 7.84858 120.633 7.19076ZM117.896 14.5147C117.713 14.9755 117.464 15.3403 117.149 15.6067C116.853 15.873 116.51 16.0647 116.128 16.1793C115.743 16.2938 115.358 16.3337 114.976 16.2991C114.156 16.2458 113.477 15.9183 112.946 15.3137C112.411 14.7091 112.147 14.0167 112.147 13.2364C112.147 12.0645 112.43 11.1244 112.998 10.4133C113.567 9.70221 114.295 9.348 115.185 9.348C115.533 9.348 115.887 9.41458 116.246 9.54774C116.605 9.6809 116.922 9.88864 117.202 10.1736C117.482 10.4586 117.713 10.8181 117.896 11.2522C118.079 11.6863 118.171 12.2057 118.171 12.8102C118.171 13.484 118.079 14.054 117.896 14.5147Z" fill="white"/>
<path d="M132.497 5.11338H132.157C131.528 5.16665 130.918 5.29448 130.323 5.49955C129.729 5.70462 129.276 5.93899 128.961 6.20532V0.399414H124.378V20.1608H128.961V10.653C129.242 10.352 129.559 10.115 129.917 9.94719C130.276 9.77941 130.682 9.66755 131.135 9.61429C131.798 9.56102 132.322 9.76076 132.707 10.2135C133.092 10.6663 133.283 11.5771 133.283 12.9434V20.1608H137.866V11.2122C137.866 9.45449 137.408 7.99769 136.491 6.8445C135.575 5.69131 134.244 5.11338 132.497 5.11338Z" fill="white"/>
<path d="M148.919 5.51294L146.457 11.5319L143.628 5.51294H138.443L144.074 16.7785L141.297 22.8507L145.855 24.1557L154 5.51294H148.919Z" fill="white"/>
</g>
<defs>
<clipPath id="clip0_5_5039">
<rect width="154" height="25" fill="white"/>
</clipPath>
</defs>
</svg>
