<svg width="18" height="18" viewBox="0 0 18 18" fill="none" xmlns="http://www.w3.org/2000/svg">
<path d="M17.7082 16.2501L13.4166 11.9584C14.2916 10.7917 14.8332 9.33341 14.8332 7.75008C14.8332 3.83341 11.6666 0.666748 7.7499 0.666748C3.83323 0.666748 0.666565 3.83341 0.666565 7.75008C0.666565 11.6667 3.83323 14.8334 7.7499 14.8334C9.33323 14.8334 10.7916 14.2917 11.9582 13.4167L16.2499 17.7084C16.3332 17.7917 16.4582 17.7917 16.5416 17.7084L17.7082 16.5417C17.7916 16.4584 17.7916 16.3334 17.7082 16.2501ZM2.7499 7.75008C2.7499 5.00008 4.9999 2.75008 7.7499 2.75008C10.4999 2.75008 12.7499 5.00008 12.7499 7.75008C12.7499 10.5001 10.4999 12.7501 7.7499 12.7501C4.9999 12.7501 2.7499 10.5001 2.7499 7.75008Z" fill="white"/>
</svg>
